<mxfile host="app.diagrams.net" modified="2024-04-22T13:45:22.325Z" agent="Mozilla/5.0 (Windows NT 10.0; Win64; x64; rv:125.0) Gecko/20100101 Firefox/125.0" version="24.2.7" etag="hnhxfKY-y64MQyICktmh" type="github">
  <diagram name="Page-1" id="dFJcY6AYgyHHjm8xuy8d">
    <mxGraphModel>
      <root>
        <mxCell id="0" />
        <mxCell id="1" parent="0" />
      </root>
    </mxGraphModel>
  </diagram>
</mxfile>
